{
    "asset" : {
        "generator" : "Khronos glTF Blender I/O v1.6.16",
        "version" : "2.0"
    },
    "scene" : 0,
    "scenes" : [
        {
            "name" : "Scene",
            "nodes" : [
                0,
                1,
                2,
                3,
                4,
                5
            ]
        }
    ],
    "nodes" : [
        {
            "mesh" : 0,
            "name" : "classy_girl_2.003",
            "rotation" : [
                0.7067204117774963,
                0.02337505854666233,
                -0.02337506227195263,
                0.7067202925682068
            ],
            "scale" : [
                0.099280945956707,
                0.099280945956707,
                0.09928091615438461
            ],
            "translation" : [
                0.13133613765239716,
                4.822022914886475,
                1.6937052011489868
            ]
        },
        {
            "mesh" : 1,
            "name" : "classy_girl_2.004",
            "rotation" : [
                0.7067204117774963,
                0.02337505854666233,
                -0.02337506227195263,
                0.7067202925682068
            ],
            "scale" : [
                0.099280945956707,
                0.099280945956707,
                0.09928091615438461
            ],
            "translation" : [
                0.13133613765239716,
                4.822022914886475,
                1.6937052011489868
            ]
        },
        {
            "mesh" : 2,
            "name" : "classy_girl_2.007",
            "rotation" : [
                0.7067204117774963,
                0.02337505854666233,
                -0.02337506227195263,
                0.7067202925682068
            ],
            "scale" : [
                0.099280945956707,
                0.099280945956707,
                0.09928091615438461
            ],
            "translation" : [
                0.13133613765239716,
                4.822022914886475,
                1.6937052011489868
            ]
        },
        {
            "mesh" : 3,
            "name" : "classy_girl_2.008",
            "rotation" : [
                0.7067204117774963,
                0.02337505854666233,
                -0.02337506227195263,
                0.7067202925682068
            ],
            "scale" : [
                0.099280945956707,
                0.099280945956707,
                0.09928091615438461
            ],
            "translation" : [
                0.13133613765239716,
                4.822022914886475,
                1.6937052011489868
            ]
        },
        {
            "mesh" : 4,
            "name" : "classy_girl_2.009",
            "rotation" : [
                0.6170281767845154,
                -0.3453640043735504,
                -0.3853815197944641,
                0.5928584933280945
            ],
            "scale" : [
                0.099280945956707,
                0.099280945956707,
                0.09928091615438461
            ],
            "translation" : [
                -17.523330688476562,
                12.96091365814209,
                3.966700553894043
            ]
        },
        {
            "mesh" : 5,
            "name" : "classy_girl_2.011",
            "rotation" : [
                0.7067204117774963,
                0.02337505854666233,
                -0.02337506227195263,
                0.7067202925682068
            ],
            "scale" : [
                0.099280945956707,
                0.099280945956707,
                0.09928091615438461
            ],
            "translation" : [
                -1.2313683032989502,
                -5.430812358856201,
                11.68509292602539
            ]
        }
    ],
    "materials" : [
        {
            "doubleSided" : true,
            "name" : "StandardA5A5A5",
            "pbrMetallicRoughness" : {
                "baseColorFactor" : [
                    0.6470587849617004,
                    0.6470587849617004,
                    0.6470587849617004,
                    1
                ],
                "metallicFactor" : 0
            }
        },
        {
            "doubleSided" : true,
            "name" : "Standard010101",
            "pbrMetallicRoughness" : {
                "baseColorFactor" : [
                    0.003921568859368563,
                    0.003921568859368563,
                    0.003921568859368563,
                    1
                ],
                "metallicFactor" : 0
            }
        },
        {
            "doubleSided" : true,
            "name" : "StandardB78456",
            "pbrMetallicRoughness" : {
                "baseColorFactor" : [
                    0.7176470160484314,
                    0.5176470279693604,
                    0.33725497126579285,
                    1
                ],
                "metallicFactor" : 0
            }
        },
        {
            "doubleSided" : true,
            "name" : "Cartoon956D5D",
            "pbrMetallicRoughness" : {
                "baseColorFactor" : [
                    0.5843137502670288,
                    0.427450954914093,
                    0.364705890417099,
                    1
                ],
                "metallicFactor" : 0
            }
        },
        {
            "doubleSided" : true,
            "name" : "CartoonFFFFFF",
            "pbrMetallicRoughness" : {
                "metallicFactor" : 0
            }
        },
        {
            "doubleSided" : true,
            "name" : "ReflectiveBCBCBC",
            "pbrMetallicRoughness" : {
                "baseColorFactor" : [
                    0.7372549772262573,
                    0.7372549772262573,
                    0.7372549772262573,
                    1
                ],
                "metallicFactor" : 0,
                "roughnessFactor" : 0
            }
        },
        {
            "doubleSided" : true,
            "name" : "CartoonEE0013",
            "pbrMetallicRoughness" : {
                "baseColorFactor" : [
                    0.9333332180976868,
                    0,
                    0.07450980693101883,
                    1
                ],
                "metallicFactor" : 0
            }
        }
    ],
    "meshes" : [
        {
            "name" : "classy_girl_2.003",
            "primitives" : [
                {
                    "attributes" : {
                        "POSITION" : 0,
                        "NORMAL" : 1,
                        "TEXCOORD_0" : 2
                    },
                    "indices" : 3,
                    "material" : 0
                }
            ]
        },
        {
            "name" : "classy_girl_2.004",
            "primitives" : [
                {
                    "attributes" : {
                        "POSITION" : 4,
                        "NORMAL" : 5,
                        "TEXCOORD_0" : 6
                    },
                    "indices" : 7,
                    "material" : 1
                }
            ]
        },
        {
            "name" : "classy_girl_2.007",
            "primitives" : [
                {
                    "attributes" : {
                        "POSITION" : 8,
                        "NORMAL" : 9,
                        "TEXCOORD_0" : 10
                    },
                    "indices" : 11,
                    "material" : 2
                }
            ]
        },
        {
            "name" : "classy_girl_2.008",
            "primitives" : [
                {
                    "attributes" : {
                        "POSITION" : 12,
                        "NORMAL" : 13,
                        "TEXCOORD_0" : 14
                    },
                    "indices" : 15,
                    "material" : 3
                }
            ]
        },
        {
            "name" : "classy_girl_2.009",
            "primitives" : [
                {
                    "attributes" : {
                        "POSITION" : 16,
                        "NORMAL" : 17,
                        "TEXCOORD_0" : 18
                    },
                    "indices" : 19,
                    "material" : 4
                }
            ]
        },
        {
            "name" : "classy_girl_2.011",
            "primitives" : [
                {
                    "attributes" : {
                        "POSITION" : 20,
                        "NORMAL" : 21,
                        "TEXCOORD_0" : 22
                    },
                    "indices" : 23,
                    "material" : 4
                },
                {
                    "attributes" : {
                        "POSITION" : 24,
                        "NORMAL" : 25,
                        "TEXCOORD_0" : 26
                    },
                    "indices" : 27,
                    "material" : 5
                },
                {
                    "attributes" : {
                        "POSITION" : 28,
                        "NORMAL" : 29,
                        "TEXCOORD_0" : 30
                    },
                    "indices" : 31,
                    "material" : 6
                }
            ]
        }
    ],
    "accessors" : [
        {
            "bufferView" : 0,
            "componentType" : 5126,
            "count" : 21388,
            "max" : [
                142.839599609375,
                21.485549926757812,
                1.9577929973602295
            ],
            "min" : [
                -142.83120727539062,
                -34.04468536376953,
                -317.0158996582031
            ],
            "type" : "VEC3"
        },
        {
            "bufferView" : 1,
            "componentType" : 5126,
            "count" : 21388,
            "type" : "VEC3"
        },
        {
            "bufferView" : 2,
            "componentType" : 5126,
            "count" : 21388,
            "type" : "VEC2"
        },
        {
            "bufferView" : 3,
            "componentType" : 5123,
            "count" : 90834,
            "type" : "SCALAR"
        },
        {
            "bufferView" : 4,
            "componentType" : 5126,
            "count" : 5407,
            "max" : [
                50.747928619384766,
                29.554122924804688,
                -102.09416198730469
            ],
            "min" : [
                -52.23845672607422,
                -26.534488677978516,
                -270.5011901855469
            ],
            "type" : "VEC3"
        },
        {
            "bufferView" : 5,
            "componentType" : 5126,
            "count" : 5407,
            "type" : "VEC3"
        },
        {
            "bufferView" : 6,
            "componentType" : 5126,
            "count" : 5407,
            "type" : "VEC2"
        },
        {
            "bufferView" : 7,
            "componentType" : 5123,
            "count" : 28263,
            "type" : "SCALAR"
        },
        {
            "bufferView" : 8,
            "componentType" : 5126,
            "count" : 11175,
            "max" : [
                115.20893859863281,
                39.59672546386719,
                -134.5337371826172
            ],
            "min" : [
                -117.40435028076172,
                -36.88425064086914,
                -283.7627868652344
            ],
            "type" : "VEC3"
        },
        {
            "bufferView" : 9,
            "componentType" : 5126,
            "count" : 11175,
            "type" : "VEC3"
        },
        {
            "bufferView" : 10,
            "componentType" : 5126,
            "count" : 11175,
            "type" : "VEC2"
        },
        {
            "bufferView" : 11,
            "componentType" : 5123,
            "count" : 51969,
            "type" : "SCALAR"
        },
        {
            "bufferView" : 12,
            "componentType" : 5126,
            "count" : 2608,
            "max" : [
                30.908435821533203,
                20.808382034301758,
                10.343592643737793
            ],
            "min" : [
                -30.908428192138672,
                -37.06560516357422,
                -18.169649124145508
            ],
            "type" : "VEC3"
        },
        {
            "bufferView" : 13,
            "componentType" : 5126,
            "count" : 2608,
            "type" : "VEC3"
        },
        {
            "bufferView" : 14,
            "componentType" : 5126,
            "count" : 2608,
            "type" : "VEC2"
        },
        {
            "bufferView" : 15,
            "componentType" : 5123,
            "count" : 9720,
            "type" : "SCALAR"
        },
        {
            "bufferView" : 16,
            "componentType" : 5126,
            "count" : 1207,
            "max" : [
                107.77698516845703,
                92.45609283447266,
                169.190673828125
            ],
            "min" : [
                -96.25831604003906,
                -86.06584167480469,
                -82.0721435546875
            ],
            "type" : "VEC3"
        },
        {
            "bufferView" : 17,
            "componentType" : 5126,
            "count" : 1207,
            "type" : "VEC3"
        },
        {
            "bufferView" : 18,
            "componentType" : 5126,
            "count" : 1207,
            "type" : "VEC2"
        },
        {
            "bufferView" : 19,
            "componentType" : 5123,
            "count" : 3126,
            "type" : "SCALAR"
        },
        {
            "bufferView" : 20,
            "componentType" : 5126,
            "count" : 10920,
            "max" : [
                148.67031860351562,
                -111.17926025390625,
                -102.23243713378906
            ],
            "min" : [
                126.26885986328125,
                -118.75298309326172,
                -137.97610473632812
            ],
            "type" : "VEC3"
        },
        {
            "bufferView" : 21,
            "componentType" : 5126,
            "count" : 10920,
            "type" : "VEC3"
        },
        {
            "bufferView" : 22,
            "componentType" : 5126,
            "count" : 10920,
            "type" : "VEC2"
        },
        {
            "bufferView" : 23,
            "componentType" : 5123,
            "count" : 52272,
            "type" : "SCALAR"
        },
        {
            "bufferView" : 24,
            "componentType" : 5126,
            "count" : 1865,
            "max" : [
                152.47848510742188,
                -94.93466186523438,
                -144.65264892578125
            ],
            "min" : [
                113.99811553955078,
                -119.9343032836914,
                -188.31251525878906
            ],
            "type" : "VEC3"
        },
        {
            "bufferView" : 25,
            "componentType" : 5126,
            "count" : 1865,
            "type" : "VEC3"
        },
        {
            "bufferView" : 26,
            "componentType" : 5126,
            "count" : 1865,
            "type" : "VEC2"
        },
        {
            "bufferView" : 27,
            "componentType" : 5123,
            "count" : 8376,
            "type" : "SCALAR"
        },
        {
            "bufferView" : 28,
            "componentType" : 5126,
            "count" : 1268,
            "max" : [
                153.76710510253906,
                -99.80693817138672,
                -90.93028259277344
            ],
            "min" : [
                119.78401947021484,
                -121.69976043701172,
                -158.75538635253906
            ],
            "type" : "VEC3"
        },
        {
            "bufferView" : 29,
            "componentType" : 5126,
            "count" : 1268,
            "type" : "VEC3"
        },
        {
            "bufferView" : 30,
            "componentType" : 5126,
            "count" : 1268,
            "type" : "VEC2"
        },
        {
            "bufferView" : 31,
            "componentType" : 5123,
            "count" : 3363,
            "type" : "SCALAR"
        }
    ],
    "bufferViews" : [
        {
            "buffer" : 0,
            "byteLength" : 256656,
            "byteOffset" : 0
        },
        {
            "buffer" : 0,
            "byteLength" : 256656,
            "byteOffset" : 256656
        },
        {
            "buffer" : 0,
            "byteLength" : 171104,
            "byteOffset" : 513312
        },
        {
            "buffer" : 0,
            "byteLength" : 181668,
            "byteOffset" : 684416
        },
        {
            "buffer" : 0,
            "byteLength" : 64884,
            "byteOffset" : 866084
        },
        {
            "buffer" : 0,
            "byteLength" : 64884,
            "byteOffset" : 930968
        },
        {
            "buffer" : 0,
            "byteLength" : 43256,
            "byteOffset" : 995852
        },
        {
            "buffer" : 0,
            "byteLength" : 56526,
            "byteOffset" : 1039108
        },
        {
            "buffer" : 0,
            "byteLength" : 134100,
            "byteOffset" : 1095636
        },
        {
            "buffer" : 0,
            "byteLength" : 134100,
            "byteOffset" : 1229736
        },
        {
            "buffer" : 0,
            "byteLength" : 89400,
            "byteOffset" : 1363836
        },
        {
            "buffer" : 0,
            "byteLength" : 103938,
            "byteOffset" : 1453236
        },
        {
            "buffer" : 0,
            "byteLength" : 31296,
            "byteOffset" : 1557176
        },
        {
            "buffer" : 0,
            "byteLength" : 31296,
            "byteOffset" : 1588472
        },
        {
            "buffer" : 0,
            "byteLength" : 20864,
            "byteOffset" : 1619768
        },
        {
            "buffer" : 0,
            "byteLength" : 19440,
            "byteOffset" : 1640632
        },
        {
            "buffer" : 0,
            "byteLength" : 14484,
            "byteOffset" : 1660072
        },
        {
            "buffer" : 0,
            "byteLength" : 14484,
            "byteOffset" : 1674556
        },
        {
            "buffer" : 0,
            "byteLength" : 9656,
            "byteOffset" : 1689040
        },
        {
            "buffer" : 0,
            "byteLength" : 6252,
            "byteOffset" : 1698696
        },
        {
            "buffer" : 0,
            "byteLength" : 131040,
            "byteOffset" : 1704948
        },
        {
            "buffer" : 0,
            "byteLength" : 131040,
            "byteOffset" : 1835988
        },
        {
            "buffer" : 0,
            "byteLength" : 87360,
            "byteOffset" : 1967028
        },
        {
            "buffer" : 0,
            "byteLength" : 104544,
            "byteOffset" : 2054388
        },
        {
            "buffer" : 0,
            "byteLength" : 22380,
            "byteOffset" : 2158932
        },
        {
            "buffer" : 0,
            "byteLength" : 22380,
            "byteOffset" : 2181312
        },
        {
            "buffer" : 0,
            "byteLength" : 14920,
            "byteOffset" : 2203692
        },
        {
            "buffer" : 0,
            "byteLength" : 16752,
            "byteOffset" : 2218612
        },
        {
            "buffer" : 0,
            "byteLength" : 15216,
            "byteOffset" : 2235364
        },
        {
            "buffer" : 0,
            "byteLength" : 15216,
            "byteOffset" : 2250580
        },
        {
            "buffer" : 0,
            "byteLength" : 10144,
            "byteOffset" : 2265796
        },
        {
            "buffer" : 0,
            "byteLength" : 6726,
            "byteOffset" : 2275940
        }
    ],
    "buffers" : [
        {
            "byteLength" : 2282668,
            "uri" : "data:application/octet-stream;base64,"
        }
    ]
}
